<svg xmlns="http://www.w3.org/2000/svg" xmlns:xlink="http://www.w3.org/1999/xlink" width="412" zoomAndPan="magnify" viewBox="0 0 309 308.999992" height="412" preserveAspectRatio="xMidYMid meet" version="1.0"><defs><g/></defs><g fill="#3b82f6" fill-opacity="1"><g transform="translate(-15.182337, 248.464465)"><g><path d="M 16.390625 0 L 16.390625 -188.109375 L 97.28125 -188.109375 C 109.820312 -188.109375 121.332031 -185.238281 131.8125 -179.5 C 142.289062 -173.769531 150.664062 -165.84375 156.9375 -155.71875 C 163.207031 -145.601562 166.34375 -133.914062 166.34375 -120.65625 C 166.34375 -107.394531 163.207031 -95.613281 156.9375 -85.3125 C 150.664062 -75.007812 142.332031 -66.992188 131.9375 -61.265625 C 121.550781 -55.535156 110 -52.671875 97.28125 -52.671875 L 61.53125 -52.671875 L 61.53125 0 Z M 61.53125 -90.5625 L 92.171875 -90.5625 C 97.546875 -90.5625 102.378906 -91.722656 106.671875 -94.046875 C 110.972656 -96.378906 114.46875 -99.785156 117.15625 -104.265625 C 119.84375 -108.742188 121.1875 -114.117188 121.1875 -120.390625 C 121.1875 -126.660156 119.84375 -132.035156 117.15625 -136.515625 C 114.46875 -140.992188 110.929688 -144.441406 106.546875 -146.859375 C 102.160156 -149.273438 97.367188 -150.484375 92.171875 -150.484375 L 61.53125 -150.484375 Z M 61.53125 -90.5625 "/></g></g></g><g fill="#ffffff" fill-opacity="1"><g transform="translate(147.119303, 248.464465)"><g><path d="M 17.46875 0 L 17.46875 -37.625 L 97.8125 -37.625 C 101.394531 -37.625 104.617188 -38.519531 107.484375 -40.3125 C 110.347656 -42.101562 112.628906 -44.429688 114.328125 -47.296875 C 116.035156 -50.160156 116.890625 -53.296875 116.890625 -56.703125 C 116.890625 -60.285156 116.035156 -63.507812 114.328125 -66.375 C 112.628906 -69.238281 110.347656 -71.566406 107.484375 -73.359375 C 104.617188 -75.148438 101.394531 -76.046875 97.8125 -76.046875 L 68.796875 -76.046875 C 57.867188 -76.046875 47.925781 -78.195312 38.96875 -82.5 C 30.007812 -86.800781 22.882812 -93.113281 17.59375 -101.4375 C 12.3125 -109.769531 9.671875 -119.757812 9.671875 -131.40625 C 9.671875 -142.863281 12.175781 -152.800781 17.1875 -161.21875 C 22.207031 -169.644531 29.015625 -176.234375 37.609375 -180.984375 C 46.210938 -185.734375 55.710938 -188.109375 66.109375 -188.109375 L 149.140625 -188.109375 L 149.140625 -150.484375 L 71.203125 -150.484375 C 67.984375 -150.484375 65.03125 -149.675781 62.34375 -148.0625 C 59.65625 -146.445312 57.59375 -144.296875 56.15625 -141.609375 C 54.726562 -138.921875 54.015625 -135.96875 54.015625 -132.75 C 54.015625 -129.519531 54.726562 -126.609375 56.15625 -124.015625 C 57.59375 -121.421875 59.65625 -119.316406 62.34375 -117.703125 C 65.03125 -116.085938 67.984375 -115.28125 71.203125 -115.28125 L 101.578125 -115.28125 C 113.578125 -115.28125 124.007812 -112.992188 132.875 -108.421875 C 141.75 -103.859375 148.648438 -97.5 153.578125 -89.34375 C 158.503906 -81.195312 160.96875 -71.660156 160.96875 -60.734375 C 160.96875 -47.828125 158.410156 -36.847656 153.296875 -27.796875 C 148.191406 -18.753906 141.335938 -11.859375 132.734375 -7.109375 C 124.140625 -2.367188 114.648438 0 104.265625 0 Z M 17.46875 0 "/></g></g></g></svg>